<?xml version="1.0" encoding="UTF-8"?>
<svg width="136px" height="136px" viewBox="0 0 136 136" version="1.1" xmlns="http://www.w3.org/2000/svg" xmlns:xlink="http://www.w3.org/1999/xlink">
    <!-- Generator: Sketch 59.1 (86144) - https://sketch.com -->
    <title>Dining Updated</title>
    <desc>Created with Sketch.</desc>
    <defs>
        <path d="M136,68 C136,105.556 105.556,136 68,136 C30.445,136 0,105.556 0,68 C0,30.444 30.445,0 68,0 C105.556,0 136,30.444 136,68" id="path-1"></path>
    </defs>
    <g id="Homepage" stroke="none" stroke-width="1" fill="none" fill-rule="evenodd">
        <g id="Full-HP-Desktop-1280" transform="translate(-956.000000, -744.000000)">
            <g id="CALLOUT" transform="translate(0.000000, 664.000000)">
                <g id="Dining-Updated" transform="translate(956.000000, 80.000000)">
                    <mask id="mask-2" fill="white">
                        <use xlink:href="#path-1"></use>
                    </mask>
                    <use id="Mask" fill="#C0E7F3" xlink:href="#path-1"></use>
                    <path d="M64.8985,89.9834 C65.0005,89.5464 65.0785,89.2074 65.1385,88.8594 C65.2245,88.3674 65.2925,87.8734 65.3435,87.3744 C65.4185,86.6304 65.4535,85.9444 65.4535,85.2744 L65.4535,42.2604 C65.4535,40.8024 64.3835,39.6174 63.0695,39.6174 C61.7545,39.6174 60.6865,40.8024 60.6865,42.2604 L60.6865,83.1354 L55.6815,83.1394 L55.6815,42.2624 C55.6815,40.8054 54.6125,39.6214 53.2975,39.6214 C51.9835,39.6214 50.9145,40.8054 50.9145,42.2624 L50.9145,83.1394 L45.9095,83.1394 L45.9095,42.2624 C45.9095,40.8054 44.8395,39.6214 43.5255,39.6214 C42.2115,39.6214 41.1415,40.8054 41.1415,42.2624 L41.1415,83.1394 L36.1355,83.1394 L36.1355,42.2604 C36.1355,40.8024 35.0665,39.6174 33.7515,39.6174 C32.4365,39.6174 31.3685,40.8024 31.3685,42.2604 L31.3685,85.2704 C31.3685,85.3874 31.3755,85.5004 31.3825,85.6124 L31.4045,86.1144 C31.4145,86.3994 31.4225,86.6844 31.4465,86.9664 C31.5355,88.0834 31.7255,89.2264 32.0125,90.3644 C32.1395,90.8684 32.2735,91.3124 32.4195,91.7544 L32.5545,92.1654 C33.0985,93.7034 33.8335,95.1674 34.7375,96.5154 C35.0465,96.9774 35.3515,97.3944 35.6745,97.7964 L35.7245,97.8714 C37.0345,99.4654 38.4745,100.7474 40.0685,101.7414 L40.1605,101.7974 C40.3195,101.8944 40.4815,101.9864 40.6445,102.0774 C40.9325,102.2394 41.1355,102.3474 41.3425,102.4534 L41.4945,102.5304 C41.6535,102.6114 41.8125,102.6924 41.9765,102.7654 C42.3495,102.9344 42.7325,103.0884 43.1205,103.2294 C43.3005,103.2954 43.4835,103.3544 43.6685,103.4134 C44.0065,103.5224 44.3515,103.6204 44.6985,103.7064 L45.0605,103.8004 C45.5275,103.9044 46.0035,103.9804 46.4835,104.0414 L46.7915,104.0764 C47.9735,104.1954 48.9355,104.1874 49.9485,104.0844 L50.3405,104.0414 C50.8195,103.9804 51.2945,103.9044 51.7625,103.8004 L52.1225,103.7074 C52.4715,103.6204 52.8155,103.5224 53.1555,103.4134 C53.3375,103.3544 53.5225,103.2954 53.7025,103.2294 C54.0905,103.0884 54.4725,102.9344 54.8465,102.7654 C55.0325,102.6804 55.2115,102.5884 55.3915,102.4974 C55.6875,102.3474 55.8895,102.2394 56.0915,102.1254 C56.3705,101.9704 56.5595,101.8644 56.7465,101.7474 L56.8065,101.7084 C57.3475,101.3684 57.8915,100.9734 58.4705,100.5034 L58.6675,100.3404 C60.3685,98.9154 61.7985,97.1704 62.9175,95.1564 C63.2675,94.5254 63.5845,93.8744 63.8585,93.2174 L63.9085,93.1034 C64.0615,92.7344 64.1685,92.4454 64.2715,92.1544 C64.3255,92.0024 64.3745,91.8504 64.4215,91.7004 C64.5785,91.2144 64.6975,90.8114 64.8025,90.4004 L64.8985,89.9834 Z" id="Fill-13" fill="#00AFD4" mask="url(#mask-2)"></path>
                    <path d="M54.1396,179.1798 C55.7056,179.1798 56.9756,177.9098 56.9756,176.3438 L56.9756,101.74208 C54.4436,103.16808 51.5236,104.7488 48.4116,104.7488 C45.2986,104.7488 42.3786,103.9318 39.8476,102.5068 L39.8476,176.3438 C39.8476,177.9098 41.1176,179.1798 42.6826,179.1798 L54.1396,179.1798 Z" id="Fill-14" fill="#10253F" mask="url(#mask-2)"></path>
                    <path d="M39.8477,107.4444 C42.3787,109.0244 45.2987,109.9304 48.4107,109.9304 C51.5237,109.9304 54.4436,109.0254 56.9756,107.4444 L56.9756,101.593858 C54.4436,103.174858 51.5237,104.1634 48.4107,104.1634 C45.2987,104.1634 42.3786,103.174858 39.8477,101.593858 L39.8477,107.4444 Z" id="Fill-15" fill="#F9C606" mask="url(#mask-2)"></path>
                    <path d="M98.9912,33.96 L99.1212,33.869 C99.4692,33.625 99.8152,33.382 100.1702,33.15 C100.3572,33.056 100.6062,33 100.8732,33 C101.6472,33 102.2152,33.407 102.5532,33.75 C102.9932,34.197 103.2842,34.782 103.3722,35.397 C103.3912,35.534 103.4002,35.672 103.4002,35.834 L103.4002,153.241 C103.4002,154.805 102.2662,156.076 100.8732,156.076 L88.4812,156.076 C87.0882,156.076 85.9542,154.805 85.9542,153.241 L85.9542,103.522 L85.9192,103.463 C85.8962,103.427 85.8722,103.392 85.8472,103.356 C85.8252,103.325 85.8032,103.293 85.7842,103.262 C80.8672,95.099 78.2692,85.564 78.2692,75.689 C78.2692,58.648 86.0152,43.049 98.9912,33.96" id="Fill-4" fill="#00AFD4" mask="url(#mask-2)"></path>
                    <path d="M100.8721,159.2022 L88.4821,159.2022 C87.0861,159.2022 85.9541,157.9322 85.9541,156.3672 L85.9541,103.7002 L103.4001,103.6392 L103.4001,156.3672 C103.4001,157.9322 102.2681,159.2022 100.8721,159.2022" id="Fill-7" fill="#10253F" mask="url(#mask-2)"></path>
                    <polygon id="Fill-10" fill="#F9C606" mask="url(#mask-2)" points="85.9545 109.1474 103.4005 109.1474 103.4005 103.522 85.9545 103.522"></polygon>
                </g>
            </g>
        </g>
    </g>
</svg>