<?xml version="1.0" encoding="UTF-8"?>
<svg width="136px" height="136px" viewBox="0 0 136 136" version="1.1" xmlns="http://www.w3.org/2000/svg" xmlns:xlink="http://www.w3.org/1999/xlink">
    <!-- Generator: Sketch 59.1 (86144) - https://sketch.com -->
    <title>C1_FeatureIcon_CMYK_Idea copy 7</title>
    <desc>Created with Sketch.</desc>
    <defs>
        <rect id="path-1" x="0" y="0" width="136" height="136" rx="68"></rect>
    </defs>
    <g id="Homepage" stroke="none" stroke-width="1" fill="none" fill-rule="evenodd">
        <g id="Full-HP-Desktop-1280" transform="translate(-188.000000, -744.000000)">
            <g id="CALLOUT" transform="translate(0.000000, 664.000000)">
                <g id="C1_FeatureIcon_CMYK_Idea-copy-7" transform="translate(188.000000, 80.000000)">
                    <mask id="mask-2" fill="white">
                        <use xlink:href="#path-1"></use>
                    </mask>
                    <use id="Mask" fill="#10253F" xlink:href="#path-1"></use>
                    <g id="C1_FeatureIcon_RGB_Savings-copy" mask="url(#mask-2)">
                        <g transform="translate(-10.736842, 31.315789)">
                            <g id="Object_Layer" transform="translate(0.625121, 3.561296)">
                                <g id="Group" transform="translate(66.300721, 0.000000)" fill-rule="nonzero">
                                    <path d="M23.091594,3.01194705 C20.4395652,1.30707136 18.3558282,1.68593262 16.8403832,2.44365515 C13.6200624,-0.0189430632 10.0208804,-0.77666559 7.17942095,1.49650199 L6.61112905,2.06479389 L6.61112905,2.06479389 L5.85340652,2.63308578 C5.85340652,2.63308578 5.85340652,2.63308578 5.85340652,2.63308578 C5.85340652,2.63308578 5.85340652,2.63308578 5.85340652,2.63308578 L5.85340652,2.63308578 L5.85340652,2.63308578 C5.47454526,3.01194705 5.47454526,3.58023894 5.85340652,3.9591002 L17.5981057,15.7037994 C17.976967,16.0826606 18.7346895,16.0826606 19.1135507,15.7037994 C19.1135507,15.7037994 19.1135507,15.5143687 19.3029814,15.5143687 L19.3029814,15.5143687 L19.8712733,14.9460768 L20.4395652,14.377785 C22.9021634,11.1574642 21.7655796,7.17942095 18.5452589,3.76966957 C19.492412,3.39080831 20.8184264,3.58023894 22.3338715,4.5273921 C22.7127328,4.90625336 23.2810246,4.71682273 23.6598859,4.33796147 C23.6598859,3.9591002 23.4704553,3.39080831 23.091594,3.01194705 Z" id="Path" fill="#106691"></path>
                                    <path d="M17.4086751,15.89323 L5.66397589,4.14853084 C5.66397589,4.14853084 5.47454526,3.9591002 5.47454526,3.9591002 L3.9591002,5.47454526 L3.9591002,5.47454526 C0.170487569,9.26315789 -0.208373695,15.1355075 3.01194705,18.5452589 C6.42169842,21.9550102 12.1046174,21.3867183 16.0826606,17.5981057 C16.0826606,17.5981057 16.0826606,17.5981057 16.2720913,17.4086751 L17.5981057,16.0826606 C17.5981057,16.0826606 17.5981057,15.89323 17.4086751,15.89323 Z" id="Path" fill="#78D0EB"></path>
                                </g>
                                <path d="M117.049187,126.520719 L117.049187,59.651706 C117.049187,53.4004951 113.639436,47.9070068 108.71424,45.0655473 C107.198795,43.9289635 106.630503,42.9818104 106.441072,42.2240878 L106.441072,31.9948337 C106.441072,30.289958 105.115058,29.1533742 103.410182,29.1533742 L53.7793564,29.1533742 C52.0744807,29.1533742 50.7484663,30.4793887 50.7484663,31.9948337 L50.7484663,42.2240878 C50.7484663,42.2240878 49.8013131,44.1183941 47.9070068,45.2549779 L47.9070068,45.2549779 C43.171241,48.285868 40.1403509,53.5899257 40.1403509,59.651706 L40.1403509,126.331288 C40.1403509,132.582499 45.2549779,137.697126 51.5061888,137.697126 L105.493919,137.697126 C111.93456,137.697126 117.049187,132.582499 117.049187,126.520719 Z" id="Path" fill="#FFFFFF" fill-rule="nonzero"></path>
                                <g id="Group" transform="translate(42.602949, 62.512108)" fill-rule="nonzero">
                                    <path d="M16.8593262,5.28511463 L16.8593262,5.28511463 C16.8593262,5.28511463 16.8593262,5.28511463 16.8593262,5.28511463 L16.8593262,5.28511463 L16.1016037,4.71682273 L15.5333118,4.14853084 C12.3129911,1.49650199 7.95608654,2.82251641 4.54633516,6.23226779 C4.1674739,5.28511463 4.1674739,3.9591002 5.30405769,2.25422452 C5.68291895,1.87536325 5.49348832,1.30707136 5.11462706,0.928210096 C4.73576579,0.549348832 4.1674739,0.738779464 3.78861264,1.11764073 C2.08373695,3.76966957 2.27316758,6.04283715 3.22032074,7.55828221 C0.568291895,10.7786029 -0.189430632,14.5672156 2.08373695,17.4086751 L2.65202885,17.976967 L2.65202885,17.976967 L3.22032074,18.7346895 C3.22032074,18.7346895 3.22032074,18.7346895 3.22032074,18.9241201 L3.22032074,18.9241201 L3.22032074,18.9241201 L3.22032074,18.9241201 C3.599182,19.3029814 4.1674739,19.3029814 4.73576579,18.9241201 L16.8593262,6.80055968 C17.2381875,6.42169842 17.2381875,5.85340652 16.8593262,5.28511463 Z" id="Path" fill="#106691"></path>
                                    <path d="M18.5642019,8.1265741 C18.5642019,7.93714347 18.5642019,7.93714347 18.5642019,8.1265741 L17.0487569,6.61112905 C17.0487569,6.61112905 16.8593262,6.80055968 16.8593262,6.80055968 L4.73576579,18.9241201 C4.73576579,18.9241201 4.54633516,19.1135507 4.54633516,19.1135507 L6.06178022,20.6289958 L6.06178022,20.6289958 C10.0398235,24.6070391 16.1016037,24.9859003 19.5113551,21.576149 C22.9211064,17.976967 22.5422452,12.1046174 18.5642019,8.1265741 Z" id="Path" fill="#00AFD4"></path>
                                </g>
                                <g id="Group" transform="translate(42.602949, 87.138091)" fill-rule="nonzero">
                                    <path d="M20.4585082,6.98999031 L19.8902163,6.42169842 L19.8902163,6.42169842 L19.3219244,5.66397589 C19.3219244,5.66397589 19.3219244,5.66397589 19.3219244,5.47454526 L19.3219244,5.47454526 L19.3219244,5.47454526 L19.3219244,5.47454526 C18.9430632,5.095684 18.3747713,5.095684 17.8064794,5.47454526 L5.68291895,17.5981057 C5.30405769,17.976967 5.30405769,18.7346895 5.68291895,19.1135507 L5.68291895,19.1135507 C5.68291895,19.1135507 5.68291895,19.1135507 5.87234959,19.3029814 L5.87234959,19.3029814 L6.44064148,19.8712733 L7.00893338,20.4395652 C10.2292541,23.091594 14.5861586,21.7655796 17.99591,18.3558282 C18.3747713,19.3029814 18.3747713,20.6289958 17.2381875,22.3338715 C16.8593262,22.7127328 17.0487569,23.2810246 17.4276181,23.6598859 C17.6170488,23.8493165 17.8064794,23.8493165 17.99591,23.8493165 C18.3747713,23.8493165 18.5642019,23.6598859 18.7536325,23.4704553 C20.4585082,20.8184264 20.2690776,18.5452589 19.3219244,17.0298138 C21.9739533,13.8094931 22.7316758,10.0208804 20.4585082,6.98999031 Z" id="Path" fill="#106691"></path>
                                    <path d="M5.49348832,17.7875363 L17.6170488,5.66397589 C17.6170488,5.66397589 17.8064794,5.47454526 17.8064794,5.47454526 L16.2910343,3.9591002 L16.2910343,3.9591002 C12.3129911,-0.0189430632 6.25121085,-0.397804327 2.84145948,3.01194705 C-0.568291895,6.42169842 -0.189430632,12.4834786 3.78861264,16.4615219 C3.78861264,16.4615219 3.78861264,16.4615219 3.97804327,16.6509525 L5.30405769,17.976967 C5.30405769,17.7875363 5.49348832,17.7875363 5.49348832,17.7875363 Z" id="Path" fill="#00AFD4"></path>
                                </g>
                                <g id="Group" transform="translate(92.775812, 62.512108)" fill-rule="nonzero">
                                    <path d="M16.1278581,5.28511463 L16.1278581,5.28511463 C16.1278581,5.28511463 15.9384275,5.28511463 16.1278581,5.28511463 L16.1278581,5.28511463 L15.3701356,4.71682273 L14.8018437,4.14853084 C11.581523,1.49650199 7.22461843,2.82251641 3.81486706,6.23226779 C3.43600579,5.28511463 3.43600579,3.9591002 4.57258958,2.25422452 C4.95145085,1.87536325 4.76202022,1.30707136 4.38315895,0.928210096 C4.00429769,0.549348832 3.43600579,0.738779464 3.05714453,1.11764073 C1.35226884,3.76966957 1.54169948,6.04283715 2.48885263,7.55828221 C-0.163176211,10.7786029 -0.920898738,14.5672156 1.35226884,17.4086751 L1.92056074,17.976967 L1.92056074,17.976967 L2.48885263,18.7346895 C2.48885263,18.7346895 2.48885263,18.7346895 2.48885263,18.9241201 L2.48885263,18.9241201 L2.48885263,18.9241201 L2.48885263,18.9241201 C2.8677139,19.3029814 3.43600579,19.3029814 4.00429769,18.9241201 L16.1278581,6.80055968 C16.5067194,6.42169842 16.5067194,5.85340652 16.1278581,5.28511463 Z" id="Path" fill="#106691"></path>
                                    <path d="M17.8327338,8.1265741 C17.8327338,7.93714347 17.6433032,7.93714347 17.8327338,8.1265741 L16.3172888,6.61112905 C16.3172888,6.61112905 16.1278581,6.80055968 16.1278581,6.80055968 L4.00429769,18.9241201 C4.00429769,18.9241201 3.81486706,19.1135507 3.81486706,19.1135507 L5.33031211,20.6289958 L5.33031211,20.6289958 C9.30835538,24.6070391 15.3701356,24.9859003 18.779887,21.576149 C22.1896383,17.976967 21.8107771,12.1046174 17.8327338,8.1265741 Z" id="Path" fill="#00AFD4"></path>
                                </g>
                                <g id="Group" transform="translate(91.854913, 87.138091)" fill-rule="nonzero">
                                    <path d="M20.6479389,6.98999031 L20.079647,6.42169842 L20.079647,6.42169842 L19.5113551,5.66397589 C19.5113551,5.66397589 19.5113551,5.66397589 19.5113551,5.47454526 L19.5113551,5.47454526 L19.5113551,5.47454526 L19.5113551,5.47454526 C19.1324938,5.095684 18.5642019,5.095684 17.99591,5.47454526 L5.68291895,17.7875363 C5.30405769,18.1663976 5.30405769,18.9241201 5.68291895,19.3029814 L5.68291895,19.3029814 C5.68291895,19.3029814 5.68291895,19.3029814 5.87234959,19.492412 L5.87234959,19.492412 L6.44064148,20.0607039 L7.00893338,20.6289958 C10.2292541,23.2810246 14.5861586,21.9550102 17.99591,18.5452589 C18.3747713,19.492412 18.3747713,20.8184264 17.2381875,22.5233021 C16.8593262,22.9021634 17.0487569,23.4704553 17.4276181,23.8493165 C17.6170488,24.0387472 17.8064794,24.0387472 17.99591,24.0387472 C18.3747713,24.0387472 18.5642019,23.8493165 18.7536325,23.6598859 C20.4585082,21.0078571 20.2690776,18.7346895 19.3219244,17.2192444 C22.1633839,13.8094931 23.1105371,10.0208804 20.6479389,6.98999031 Z" id="Path" fill="#106691"></path>
                                    <path d="M5.68291895,17.7875363 L17.8064794,5.66397589 C17.8064794,5.66397589 17.99591,5.47454526 17.99591,5.47454526 L16.480465,3.9591002 L16.480465,3.9591002 C12.5024217,-0.0189430632 6.44064148,-0.397804327 3.03089011,3.01194705 C-0.378861264,6.42169842 4.08340028e-13,12.4834786 3.97804327,16.4615219 C3.97804327,16.4615219 3.97804327,16.4615219 4.1674739,16.6509525 L5.49348832,17.976967 C5.68291895,17.7875363 5.68291895,17.7875363 5.68291895,17.7875363 Z" id="Path" fill="#00AFD4"></path>
                                </g>
                                <g id="Group" transform="translate(67.228931, 86.171994)" fill-rule="nonzero">
                                    <path d="M17.0487569,4.92519643 L17.0487569,4.92519643 C17.0487569,4.73576579 16.8593262,4.73576579 17.0487569,4.92519643 L17.0487569,4.92519643 L16.2910343,4.1674739 L15.7227424,3.599182 C12.5024217,0.947153159 8.14551717,2.27316758 4.73576579,5.68291895 C4.35690453,4.73576579 4.35690453,3.40975137 5.49348832,1.70487569 C5.87234959,1.32601442 5.68291895,0.757722527 5.30405769,0.378861264 C4.73576579,0 4.1674739,0 3.78861264,0.568291895 C2.08373695,3.22032074 2.27316758,5.49348832 3.22032074,7.00893338 C0.568291895,10.2292541 -0.189430632,14.0178668 2.08373695,16.8593262 L2.65202885,17.4276181 L2.65202885,17.4276181 L3.22032074,18.1853407 C3.22032074,18.1853407 3.22032074,18.1853407 3.22032074,18.3747713 L3.22032074,18.3747713 L3.22032074,18.3747713 L3.22032074,18.3747713 C3.599182,18.7536325 4.1674739,18.7536325 4.73576579,18.3747713 L16.8593262,6.25121085 C17.4276181,5.87234959 17.4276181,5.30405769 17.0487569,4.92519643 Z" id="Path" fill="#106691"></path>
                                    <path d="M18.7536325,7.57722527 C18.7536325,7.57722527 18.5642019,7.38779464 18.7536325,7.57722527 L17.2381875,6.06178022 C17.2381875,6.06178022 17.0487569,6.25121085 17.0487569,6.25121085 L4.92519643,18.3747713 C4.92519643,18.3747713 4.73576579,18.5642019 4.73576579,18.5642019 L6.25121085,20.079647 L6.25121085,20.079647 C10.2292541,24.0576902 16.2910343,24.4365515 19.7007857,21.0268001 C23.1105371,17.6170488 22.7316758,11.5552685 18.7536325,7.57722527 Z" id="Path" fill="#00AFD4"></path>
                                </g>
                                <g id="Group" transform="translate(67.228931, 62.512108)" fill-rule="nonzero">
                                    <path d="M20.6479389,6.98999031 L20.079647,6.42169842 L20.079647,6.42169842 L19.5113551,5.66397589 C19.5113551,5.66397589 19.5113551,5.66397589 19.5113551,5.47454526 L19.5113551,5.47454526 L19.5113551,5.47454526 L19.5113551,5.47454526 C19.1324938,5.095684 18.5642019,5.095684 17.99591,5.47454526 L5.68291895,17.5981057 C5.30405769,17.976967 5.30405769,18.7346895 5.68291895,19.1135507 L5.68291895,19.1135507 C5.68291895,19.1135507 5.68291895,19.1135507 5.87234959,19.3029814 L5.87234959,19.3029814 L6.44064148,19.8712733 L7.00893338,20.4395652 C10.2292541,23.091594 14.5861586,21.7655796 17.99591,18.3558282 C18.3747713,19.3029814 18.3747713,20.6289958 17.2381875,22.3338715 C17.0487569,22.7127328 17.0487569,23.2810246 17.6170488,23.6598859 C17.8064794,23.8493165 17.99591,23.8493165 18.1853407,23.8493165 C18.5642019,23.8493165 18.7536325,23.6598859 18.9430632,23.4704553 C20.6479389,20.8184264 20.4585082,18.5452589 19.5113551,17.0298138 C22.1633839,13.6200624 22.9211064,9.83144979 20.6479389,6.98999031 Z" id="Path" fill="#106691"></path>
                                    <path d="M5.68291895,17.5981057 L17.8064794,5.47454526 C17.8064794,5.47454526 17.99591,5.28511463 17.99591,5.28511463 L16.480465,3.76966957 L16.480465,3.76966957 C12.5024217,-0.208373695 6.44064148,-0.587234959 3.03089011,2.82251641 C-0.378861264,6.23226779 4.08340028e-13,12.294048 3.97804327,16.2720913 C3.97804327,16.2720913 3.97804327,16.2720913 4.1674739,16.4615219 L5.49348832,17.7875363 C5.49348832,17.7875363 5.68291895,17.5981057 5.68291895,17.5981057 Z" id="Path" fill="#00AFD4"></path>
                                </g>
                                <path d="M106.630503,31.2371112 L106.062211,31.2371112 L51.1273275,31.2371112 L50.5590356,31.2371112 C49.4224518,31.2371112 48.6647293,31.9948337 48.6647293,33.1314175 C48.6647293,34.2680013 49.4224518,35.0257238 50.5590356,35.0257238 L51.1273275,35.0257238 L106.251641,35.0257238 L106.819933,35.0257238 C107.956517,35.0257238 108.71424,34.2680013 108.71424,33.1314175 C108.524809,32.1842643 107.767086,31.2371112 106.630503,31.2371112 Z" id="Path" fill="#C0E7F3" fill-rule="nonzero"></path>
                                <path d="M106.630503,38.8143365 L106.062211,38.8143365 L51.1273275,38.8143365 L50.5590356,38.8143365 C49.4224518,38.8143365 48.6647293,39.572059 48.6647293,40.7086428 C48.6647293,41.8452266 49.4224518,42.6029491 50.5590356,42.6029491 L50.9378969,42.6029491 L106.251641,42.6029491 L106.630503,42.6029491 C107.767086,42.6029491 108.524809,41.8452266 108.524809,40.7086428 C108.524809,39.7614896 107.767086,38.8143365 106.630503,38.8143365 Z" id="Path" fill="#C0E7F3" fill-rule="nonzero"></path>
                            </g>
                            <g id="Activation_Layer" transform="translate(38.511247, 0.700893)">
                                <path d="M21.7655796,15.1544505 C21.3867183,15.1544505 21.0078571,14.9650199 20.6289958,14.7755893 C16.6509525,12.1235604 11.3468948,12.1235604 7.36885158,14.5861586 C6.42169842,15.1544505 5.28511463,14.7755893 4.71682273,14.0178668 C4.14853084,13.0707136 4.5273921,11.9341298 5.28511463,11.3658379 C10.5891723,8.14551717 17.5981057,8.14551717 22.7127328,11.5552685 C23.6598859,12.1235604 23.8493165,13.2601442 23.2810246,14.2072974 C22.9021634,14.7755893 22.3338715,15.1544505 21.7655796,15.1544505 Z" id="Path" fill="#F9C606" fill-rule="nonzero"></path>
                                <path d="M25.9330535,7.7666559 C25.5541922,7.7666559 25.175331,7.57722527 24.9859003,7.38779464 C18.5452589,3.22032074 9.83144979,3.03089011 3.20137768,7.00893338 C2.25422452,7.57722527 1.11764073,7.19836401 0.549348832,6.25121085 C-0.0189430632,5.30405769 0.3599182,4.1674739 1.30707136,3.599182 C5.095684,1.32601442 9.45258853,0.189430632 13.8094931,0.189430632 C18.5452589,0.189430632 23.091594,1.51544505 27.0696373,4.1674739 C28.0167904,4.73576579 28.2062211,5.87234959 27.6379292,6.81950274 C27.2590679,7.57722527 26.690776,7.7666559 25.9330535,7.7666559 Z" id="Path" fill="#F9C606" fill-rule="nonzero"></path>
                            </g>
                        </g>
                    </g>
                </g>
            </g>
        </g>
    </g>
</svg>