<?xml version="1.0" encoding="UTF-8"?>
<svg width="136px" height="136px" viewBox="0 0 136 136" version="1.1" xmlns="http://www.w3.org/2000/svg" xmlns:xlink="http://www.w3.org/1999/xlink">
    <!-- Generator: Sketch 59.1 (86144) - https://sketch.com -->
    <title>C1_FeatureIcon_CMYK_DownloadApp copy 5</title>
    <desc>Created with Sketch.</desc>
    <defs>
        <rect id="path-1" x="0" y="0" width="136" height="136" rx="68"></rect>
        <polygon id="path-3" points="0.000218890977 0.215542471 122.578947 0.215542471 122.578947 122.964423 0.000218890977 122.964423"></polygon>
        <path d="M61.2902033,0.214811819 C27.4394433,0.214811819 0,27.6939196 0,61.5896172 L0,61.5896172 C0,95.4860454 27.4394433,122.964423 61.2902033,122.964423 L61.2902033,122.964423 C95.1387744,122.964423 122.578947,95.4860454 122.578947,61.5896172 L122.578947,61.5896172" id="path-5"></path>
        <polygon id="path-7" points="0 132.493421 122.578947 132.493421 122.578947 0.215942316 0 0.215942316"></polygon>
        <path d="M61.2902033,0.214811819 C27.4394433,0.214811819 0,27.6939196 0,61.5896172 L0,61.5896172 C0,95.4860454 27.4394433,122.964423 61.2902033,122.964423 L61.2902033,122.964423 C95.1387744,122.964423 122.578947,95.4860454 122.578947,61.5896172 L122.578947,61.5896172" id="path-9"></path>
    </defs>
    <g id="Homepage" stroke="none" stroke-width="1" fill="none" fill-rule="evenodd">
        <g id="Full-HP-Desktop-1280" transform="translate(-572.000000, -744.000000)">
            <g id="CALLOUT" transform="translate(0.000000, 664.000000)">
                <g id="C1_FeatureIcon_CMYK_DownloadApp-copy-5" transform="translate(572.000000, 80.000000)">
                    <mask id="mask-2" fill="white">
                        <use xlink:href="#path-1"></use>
                    </mask>
                    <use id="Mask" fill="#00AFD4" xlink:href="#path-1"></use>
                    <g id="Group-25-Copy" mask="url(#mask-2)">
                        <g transform="translate(17.000000, 24.157895)">
                            <g id="Group-3">
                                <mask id="mask-4" fill="white">
                                    <use xlink:href="#path-3"></use>
                                </mask>
                                <g id="Clip-2"></g>
                                <path d="M122.579166,61.5896172 C122.579166,95.486776 95.1389933,122.964423 61.2896926,122.964423 C27.4396622,122.964423 0.000218890977,95.486776 0.000218890977,61.5896172 C0.000218890977,27.693189 27.4396622,0.214811819 61.2896926,0.214811819 C95.1389933,0.214811819 122.579166,27.693189 122.579166,61.5896172" id="Fill-1" fill="#00AFD4" mask="url(#mask-4)"></path>
                            </g>
                            <g id="Group-6">
                                <mask id="mask-6" fill="white">
                                    <use xlink:href="#path-5"></use>
                                </mask>
                                <g id="Clip-5"></g>
                                <path d="M88.5292154,63.1394041 L77.9961816,65.2867916 L86.5256334,107.264967 L92.9121424,117.225951 L97.8707527,131.315853 L114.410885,127.881056 C114.410885,127.881056 109.916323,95.1931268 109.015222,90.8588965 C108.113391,86.5239356 98.243597,68.8099977 95.4819225,66.9212611 C93.0369103,65.2487977 89.6995525,63.1394041 89.6995525,63.1394041" id="Fill-4" fill="#106691" mask="url(#mask-6)"></path>
                            </g>
                            <g id="Group-21">
                                <path d="M83.9939403,112.276096 L18.6695763,112.276096 C14.6259303,112.276096 11.3484027,108.987917 11.3484027,104.931861 L11.3484027,19.3374514 C11.3484027,15.2813959 14.6259303,11.9932166 18.6695763,11.9932166 L83.9939403,11.9932166 C88.0375863,11.9932166 91.3151139,15.2813959 91.3151139,19.3374514 L91.3151139,104.931861 C91.3151139,108.987917 88.0375863,112.276096 83.9939403,112.276096" id="Fill-7" fill="#10253F"></path>
                                <path d="M82.7362657,100.576781 L20.3253406,100.576781 C19.1579221,100.576781 18.2115834,99.6266345 18.2115834,98.456154 L18.2115834,20.7996371 C18.2115834,19.6284245 19.1579221,18.6782783 20.3253406,18.6782783 L82.7362657,18.6782783 C83.9044139,18.6782783 84.8500229,19.6284245 84.8500229,20.7996371 L84.8500229,98.456154 C84.8500229,99.6266345 83.9044139,100.576781 82.7362657,100.576781" id="Fill-9" fill="#FFFFFF"></path>
                                <path d="M60.0370525,108.680327 L42.6264641,108.680327 C41.6414547,108.680327 40.8366656,107.872191 40.8366656,106.88398 L40.8366656,106.297642 C40.8366656,105.310163 41.6414547,104.501294 42.6264641,104.501294 L60.0370525,104.501294 C61.0220619,104.501294 61.826851,105.310163 61.826851,106.297642 L61.826851,106.88398 C61.826851,107.872191 61.0220619,108.680327 60.0370525,108.680327" id="Fill-11" fill="#C1E8F4"></path>
                                <path d="M73.1996966,31.9489219 L29.6082881,31.9489219 C28.7626393,31.9489219 28.0760512,32.6362772 28.0760512,33.4861384 L28.0760512,60.3186181 C28.0760512,61.1677473 28.7626393,61.8558346 29.6082881,61.8558346 L73.1996966,61.8558346 C74.046075,61.8558346 74.7326631,61.1677473 74.7326631,60.3186181 L74.7326631,33.4861384 C74.7326631,32.6362772 74.046075,31.9489219 73.1996966,31.9489219" id="Fill-13" fill="#00AFD4"></path>
                                <mask id="mask-8" fill="white">
                                    <use xlink:href="#path-7"></use>
                                </mask>
                                <g id="Clip-16"></g>
                                <polygon id="Fill-15" fill="#013D5B" mask="url(#mask-8)" points="28.076416 41.9908984 74.7322982 41.9908984 74.7322982 36.3544379 28.076416 36.3544379"></polygon>
                                <polygon id="Fill-17" fill="#C0E7F4" mask="url(#mask-8)" points="34.1973374 56.2416272 47.6627807 56.2416272 47.6627807 54.1920052 34.1973374 54.1920052"></polygon>
                                <polygon id="Fill-18" fill="#C0E7F4" mask="url(#mask-8)" points="34.1973374 51.1768649 57.4698261 51.1768649 57.4698261 49.1265109 34.1973374 49.1265109"></polygon>
                                <path d="M48.5260138,85.8615929 C48.228322,85.8615929 47.9415748,85.7247074 47.7307099,85.4816808 L41.614896,78.4353733 C41.1756547,77.9288238 41.1756547,77.108243 41.614896,76.6016936 C42.0548668,76.0944121 42.7662625,76.0944121 43.2062334,76.6016936 L48.5260138,82.7307953 L60.455572,68.9851519 C60.8948133,68.4793345 61.6076682,68.4793345 62.0469094,68.9851519 C62.4868803,69.4924333 62.4868803,70.3130141 62.0469094,70.8195636 L49.3220473,85.4816808 C49.1111823,85.7247074 48.8244351,85.8615929 48.5260138,85.8615929" id="Fill-19" fill="#F8C612" mask="url(#mask-8)"></path>
                                <path d="M48.5260138,85.8615929 C48.228322,85.8615929 47.9415748,85.7247074 47.7307099,85.4816808 L41.614896,78.4353733 C41.1756547,77.9288238 41.1756547,77.108243 41.614896,76.6016936 C42.0548668,76.0944121 42.7662625,76.0944121 43.2062334,76.6016936 L48.5260138,82.7307953 L60.455572,68.9851519 C60.8948133,68.4793345 61.6076682,68.4793345 62.0469094,68.9851519 C62.4868803,69.4924333 62.4868803,70.3130141 62.0469094,70.8195636 L49.3220473,85.4816808 C49.1111823,85.7247074 48.8244351,85.8615929 48.5260138,85.8615929 Z" id="Stroke-20" stroke="#F8C612" stroke-width="1.78947368" mask="url(#mask-8)"></path>
                            </g>
                            <g id="Group-24">
                                <mask id="mask-10" fill="white">
                                    <use xlink:href="#path-9"></use>
                                </mask>
                                <g id="Clip-23"></g>
                                <path d="M92.1424488,89.2895281 C92.1424488,89.2895281 80.3471437,79.535318 77.0287565,77.1292795 C73.7096396,74.7239717 68.1250011,78.3428932 71.5003,83.4311568 C74.8748692,88.5194205 83.4583141,98.079277 83.4583141,98.079277 C83.4583141,98.079277 83.5896487,105.004401 86.2068551,111.191566 C88.588389,116.821974 92.9034598,119.060693 92.9034598,119.060693 L97.8708257,132.248239 L103.011845,130.591119" id="Fill-22" fill="#106691" mask="url(#mask-10)"></path>
                            </g>
                        </g>
                    </g>
                </g>
            </g>
        </g>
    </g>
</svg>